<?xml version="1.0" encoding="UTF-8" standalone="no"?>
<!DOCTYPE svg PUBLIC "-//W3C//DTD SVG 1.1//EN"
 "http://www.w3.org/Graphics/SVG/1.1/DTD/svg11.dtd">
<!-- Generated by graphviz version 2.48.0 (20210717.1556)
 -->
<!-- Pages: 1 -->
<svg width="852pt" height="476pt"
 viewBox="0.00 0.00 852.36 476.00" xmlns="http://www.w3.org/2000/svg" xmlns:xlink="http://www.w3.org/1999/xlink">
<g id="graph0" class="graph" transform="scale(1 1) rotate(0) translate(4 472)">
<polygon fill="white" stroke="transparent" points="-4,4 -4,-472 848.36,-472 848.36,4 -4,4"/>
<!-- [root] aws_instance.foo (expand) -->
<g id="node1" class="node">
<title>[root] aws_instance.foo (expand)</title>
<polygon fill="none" stroke="black" points="452.68,-324 338.68,-324 338.68,-288 452.68,-288 452.68,-324"/>
<text text-anchor="middle" x="395.68" y="-302.3" font-family="Times New Roman,serif" font-size="14.00">aws_instance.foo</text>
</g>
<!-- [root] aws_network_interface.foo (expand) -->
<g id="node2" class="node">
<title>[root] aws_network_interface.foo (expand)</title>
<polygon fill="none" stroke="black" points="480.18,-252 311.18,-252 311.18,-216 480.18,-216 480.18,-252"/>
<text text-anchor="middle" x="395.68" y="-230.3" font-family="Times New Roman,serif" font-size="14.00">aws_network_interface.foo</text>
</g>
<!-- [root] aws_instance.foo (expand)&#45;&gt;[root] aws_network_interface.foo (expand) -->
<g id="edge1" class="edge">
<title>[root] aws_instance.foo (expand)&#45;&gt;[root] aws_network_interface.foo (expand)</title>
<path fill="none" stroke="black" d="M395.68,-287.7C395.68,-279.98 395.68,-270.71 395.68,-262.11"/>
<polygon fill="black" stroke="black" points="399.18,-262.1 395.68,-252.1 392.18,-262.1 399.18,-262.1"/>
</g>
<!-- [root] aws_subnet.my_subnet (expand) -->
<g id="node3" class="node">
<title>[root] aws_subnet.my_subnet (expand)</title>
<polygon fill="none" stroke="black" points="469.68,-180 321.68,-180 321.68,-144 469.68,-144 469.68,-180"/>
<text text-anchor="middle" x="395.68" y="-158.3" font-family="Times New Roman,serif" font-size="14.00">aws_subnet.my_subnet</text>
</g>
<!-- [root] aws_network_interface.foo (expand)&#45;&gt;[root] aws_subnet.my_subnet (expand) -->
<g id="edge2" class="edge">
<title>[root] aws_network_interface.foo (expand)&#45;&gt;[root] aws_subnet.my_subnet (expand)</title>
<path fill="none" stroke="black" d="M395.68,-215.7C395.68,-207.98 395.68,-198.71 395.68,-190.11"/>
<polygon fill="black" stroke="black" points="399.18,-190.1 395.68,-180.1 392.18,-190.1 399.18,-190.1"/>
</g>
<!-- [root] aws_vpc.my_vpc (expand) -->
<g id="node4" class="node">
<title>[root] aws_vpc.my_vpc (expand)</title>
<polygon fill="none" stroke="black" points="453.68,-108 337.68,-108 337.68,-72 453.68,-72 453.68,-108"/>
<text text-anchor="middle" x="395.68" y="-86.3" font-family="Times New Roman,serif" font-size="14.00">aws_vpc.my_vpc</text>
</g>
<!-- [root] aws_subnet.my_subnet (expand)&#45;&gt;[root] aws_vpc.my_vpc (expand) -->
<g id="edge3" class="edge">
<title>[root] aws_subnet.my_subnet (expand)&#45;&gt;[root] aws_vpc.my_vpc (expand)</title>
<path fill="none" stroke="black" d="M395.68,-143.7C395.68,-135.98 395.68,-126.71 395.68,-118.11"/>
<polygon fill="black" stroke="black" points="399.18,-118.1 395.68,-108.1 392.18,-118.1 399.18,-118.1"/>
</g>
<!-- [root] provider[&quot;registry.terraform.io/hashicorp/aws&quot;] -->
<g id="node5" class="node">
<title>[root] provider[&quot;registry.terraform.io/hashicorp/aws&quot;]</title>
<polygon fill="none" stroke="black" points="395.68,-36 138.46,-18 395.68,0 652.91,-18 395.68,-36"/>
<text text-anchor="middle" x="395.68" y="-14.3" font-family="Times New Roman,serif" font-size="14.00">provider[&quot;registry.terraform.io/hashicorp/aws&quot;]</text>
</g>
<!-- [root] aws_vpc.my_vpc (expand)&#45;&gt;[root] provider[&quot;registry.terraform.io/hashicorp/aws&quot;] -->
<g id="edge4" class="edge">
<title>[root] aws_vpc.my_vpc (expand)&#45;&gt;[root] provider[&quot;registry.terraform.io/hashicorp/aws&quot;]</title>
<path fill="none" stroke="black" d="M395.68,-71.7C395.68,-63.98 395.68,-54.71 395.68,-46.11"/>
<polygon fill="black" stroke="black" points="399.18,-46.1 395.68,-36.1 392.18,-46.1 399.18,-46.1"/>
</g>
<!-- [root] meta.count&#45;boundary (EachMode fixup) -->
<g id="node6" class="node">
<title>[root] meta.count&#45;boundary (EachMode fixup)</title>
<ellipse fill="none" stroke="black" cx="180.68" cy="-378" rx="180.87" ry="18"/>
<text text-anchor="middle" x="180.68" y="-374.3" font-family="Times New Roman,serif" font-size="14.00">[root] meta.count&#45;boundary (EachMode fixup)</text>
</g>
<!-- [root] meta.count&#45;boundary (EachMode fixup)&#45;&gt;[root] aws_instance.foo (expand) -->
<g id="edge5" class="edge">
<title>[root] meta.count&#45;boundary (EachMode fixup)&#45;&gt;[root] aws_instance.foo (expand)</title>
<path fill="none" stroke="black" d="M230.82,-360.68C261.41,-350.72 300.76,-337.91 333.34,-327.3"/>
<polygon fill="black" stroke="black" points="334.79,-330.51 343.22,-324.08 332.63,-323.85 334.79,-330.51"/>
</g>
<!-- [root] provider[&quot;registry.terraform.io/hashicorp/aws&quot;] (close) -->
<g id="node7" class="node">
<title>[root] provider[&quot;registry.terraform.io/hashicorp/aws&quot;] (close)</title>
<ellipse fill="none" stroke="black" cx="611.68" cy="-378" rx="232.86" ry="18"/>
<text text-anchor="middle" x="611.68" y="-374.3" font-family="Times New Roman,serif" font-size="14.00">[root] provider[&quot;registry.terraform.io/hashicorp/aws&quot;] (close)</text>
</g>
<!-- [root] provider[&quot;registry.terraform.io/hashicorp/aws&quot;] (close)&#45;&gt;[root] aws_instance.foo (expand) -->
<g id="edge6" class="edge">
<title>[root] provider[&quot;registry.terraform.io/hashicorp/aws&quot;] (close)&#45;&gt;[root] aws_instance.foo (expand)</title>
<path fill="none" stroke="black" d="M560.49,-360.41C529.86,-350.48 490.69,-337.79 458.23,-327.27"/>
<polygon fill="black" stroke="black" points="458.98,-323.83 448.38,-324.08 456.82,-330.49 458.98,-323.83"/>
</g>
<!-- [root] root -->
<g id="node8" class="node">
<title>[root] root</title>
<ellipse fill="none" stroke="black" cx="395.68" cy="-450" rx="49.29" ry="18"/>
<text text-anchor="middle" x="395.68" y="-446.3" font-family="Times New Roman,serif" font-size="14.00">[root] root</text>
</g>
<!-- [root] root&#45;&gt;[root] meta.count&#45;boundary (EachMode fixup) -->
<g id="edge7" class="edge">
<title>[root] root&#45;&gt;[root] meta.count&#45;boundary (EachMode fixup)</title>
<path fill="none" stroke="black" d="M360.18,-437.44C327.75,-426.88 279.13,-411.05 240.66,-398.53"/>
<polygon fill="black" stroke="black" points="241.71,-395.19 231.12,-395.42 239.55,-401.85 241.71,-395.19"/>
</g>
<!-- [root] root&#45;&gt;[root] provider[&quot;registry.terraform.io/hashicorp/aws&quot;] (close) -->
<g id="edge8" class="edge">
<title>[root] root&#45;&gt;[root] provider[&quot;registry.terraform.io/hashicorp/aws&quot;] (close)</title>
<path fill="none" stroke="black" d="M431.35,-437.44C463.72,-426.95 512.12,-411.27 550.64,-398.78"/>
<polygon fill="black" stroke="black" points="551.77,-402.1 560.2,-395.68 549.61,-395.44 551.77,-402.1"/>
</g>
</g>
</svg>
